grf
version=1
nRows=23
nColumns=46
inDegrees=yes
endheader
time	ground_force_1_vx	ground_force_1_vy	ground_force_1_vz	ground_force_1_px	ground_force_1_py	ground_force_1_pz	ground_moment_1_mx	ground_moment_1_my	ground_moment_1_mz	ground_force_2_vx	ground_force_2_vy	ground_force_2_vz	ground_force_2_px	ground_force_2_py	ground_force_2_pz	ground_moment_2_mx	ground_moment_2_my	ground_moment_2_mz	ground_force_3_vx	ground_force_3_vy	ground_force_3_vz	ground_force_3_px	ground_force_3_py	ground_force_3_pz	ground_moment_3_mx	ground_moment_3_my	ground_moment_3_mz	ground_force_4_vx	ground_force_4_vy	ground_force_4_vz	ground_force_4_px	ground_force_4_py	ground_force_4_pz	ground_moment_4_mx	ground_moment_4_my	ground_moment_4_mz	ground_force_5_vx	ground_force_5_vy	ground_force_5_vz	ground_force_5_px	ground_force_5_py	ground_force_5_pz	ground_moment_5_mx	ground_moment_5_my	ground_moment_5_mz
0.836000	0.000000	0.000000	0.000000	0.000000	0.000000	0.000000	0.000000	0.000000	0.000000	0.000000	0.000000	0.000000	0.000000	0.000000	0.000000	0.000000	0.000000	0.000000	-18.514630	504.611238	17.476843	0.557853	0.000000	0.090605	0.000000	-0.046455	-0.000000	-12.613798	124.704010	22.119746	0.626341	0.000000	0.098860	0.000000	-0.105873	0.000000	0.000000	0.000000	0.000000	0.000000	0.000000	0.000000	0.000000	0.000000	0.000000
0.836500	0.000000	0.000000	0.000000	0.000000	0.000000	0.000000	0.000000	0.000000	0.000000	0.000000	0.000000	0.000000	0.000000	0.000000	0.000000	0.000000	0.000000	0.000000	-18.177216	503.574778	17.253176	0.558014	0.000000	0.090645	0.000000	-0.058294	-0.000000	-12.780333	125.389878	22.322102	0.626707	0.000000	0.098928	0.000000	-0.104037	0.000000	0.000000	0.000000	0.000000	0.000000	0.000000	0.000000	0.000000	0.000000	0.000000
0.837000	0.000000	0.000000	0.000000	0.000000	0.000000	0.000000	0.000000	0.000000	0.000000	0.000000	0.000000	0.000000	0.000000	0.000000	0.000000	0.000000	0.000000	0.000000	-17.839833	502.549892	17.028341	0.558174	0.000000	0.090686	0.000000	-0.070156	-0.000000	-12.947033	126.076847	22.524948	0.627072	0.000000	0.098995	0.000000	-0.102079	0.000000	0.000000	0.000000	0.000000	0.000000	0.000000	0.000000	0.000000	0.000000	0.000000
0.837500	0.000000	0.000000	0.000000	0.000000	0.000000	0.000000	0.000000	0.000000	0.000000	0.000000	0.000000	0.000000	0.000000	0.000000	0.000000	0.000000	0.000000	0.000000	-17.502471	501.536591	16.802320	0.558332	0.000000	0.090728	0.000000	-0.082044	-0.000000	-13.113860	126.764858	22.728261	0.627435	0.000000	0.099063	0.000000	-0.100000	0.000000	0.000000	0.000000	0.000000	0.000000	0.000000	0.000000	0.000000	0.000000	0.000000
0.838000	0.000000	0.000000	0.000000	0.000000	0.000000	0.000000	0.000000	0.000000	0.000000	0.000000	0.000000	0.000000	0.000000	0.000000	0.000000	0.000000	0.000000	0.000000	-17.165126	500.534871	16.575098	0.558488	0.000000	0.090769	0.000000	-0.093966	-0.000000	-13.280780	127.453843	22.932021	0.627797	0.000000	0.099130	0.000000	-0.097807	0.000000	0.000000	0.000000	0.000000	0.000000	0.000000	0.000000	0.000000	0.000000	0.000000
0.838500	0.000000	0.000000	0.000000	0.000000	0.000000	0.000000	0.000000	0.000000	0.000000	0.000000	0.000000	0.000000	0.000000	0.000000	0.000000	0.000000	0.000000	0.000000	-16.827792	499.544722	16.346659	0.558642	0.000000	0.090811	0.000000	-0.105928	-0.000000	-13.447761	128.143725	23.136212	0.628157	0.000000	0.099197	0.000000	-0.095507	0.000000	0.000000	0.000000	0.000000	0.000000	0.000000	0.000000	0.000000	0.000000	0.000000
0.839000	0.000000	0.000000	0.000000	0.000000	0.000000	0.000000	0.000000	0.000000	0.000000	0.000000	0.000000	0.000000	0.000000	0.000000	0.000000	0.000000	0.000000	0.000000	-16.490469	498.566125	16.116995	0.558794	0.000000	0.090853	0.000000	-0.117941	-0.000000	-13.614777	128.834426	23.340816	0.628516	0.000000	0.099263	0.000000	-0.093106	0.000000	0.000000	0.000000	0.000000	0.000000	0.000000	0.000000	0.000000	0.000000	0.000000
0.839500	0.000000	0.000000	0.000000	0.000000	0.000000	0.000000	0.000000	0.000000	0.000000	0.000000	0.000000	0.000000	0.000000	0.000000	0.000000	0.000000	0.000000	0.000000	-16.153162	497.599065	15.886105	0.558944	0.000000	0.090895	0.000000	-0.130013	-0.000000	-13.781799	129.525864	23.545813	0.628874	0.000000	0.099330	0.000000	-0.090610	0.000000	0.000000	0.000000	0.000000	0.000000	0.000000	0.000000	0.000000	0.000000	0.000000
0.840000	0.000000	0.000000	0.000000	0.000000	0.000000	0.000000	0.000000	0.000000	0.000000	0.000000	0.000000	0.000000	0.000000	0.000000	0.000000	0.000000	0.000000	0.000000	-15.815876	496.643527	15.653995	0.559092	0.000000	0.090937	0.000000	-0.142152	-0.000000	-13.948799	130.217954	23.751183	0.629230	0.000000	0.099396	0.000000	-0.088020	0.000000	0.000000	0.000000	0.000000	0.000000	0.000000	0.000000	0.000000	0.000000	0.000000
0.840500	0.000000	0.000000	0.000000	0.000000	0.000000	0.000000	0.000000	0.000000	0.000000	0.000000	0.000000	0.000000	0.000000	0.000000	0.000000	0.000000	0.000000	0.000000	-15.478619	495.699496	15.420678	0.559238	0.000000	0.090980	0.000000	-0.154366	-0.000000	-14.115744	130.910614	23.956906	0.629583	0.000000	0.099463	0.000000	-0.085340	0.000000	0.000000	0.000000	0.000000	0.000000	0.000000	0.000000	0.000000	0.000000	0.000000
0.841000	0.000000	0.000000	0.000000	0.000000	0.000000	0.000000	0.000000	0.000000	0.000000	0.000000	0.000000	0.000000	0.000000	0.000000	0.000000	0.000000	0.000000	0.000000	-15.141402	494.766940	15.186172	0.559382	0.000000	0.091023	0.000000	-0.166662	-0.000000	-14.282596	131.603757	24.162962	0.629935	0.000000	0.099529	0.000000	-0.082572	0.000000	0.000000	0.000000	0.000000	0.000000	0.000000	0.000000	0.000000	0.000000	0.000000
0.841500	0.000000	0.000000	0.000000	0.000000	0.000000	0.000000	0.000000	0.000000	0.000000	0.000000	0.000000	0.000000	0.000000	0.000000	0.000000	0.000000	0.000000	0.000000	-14.804237	493.845810	14.950498	0.559524	0.000000	0.091066	0.000000	-0.179048	-0.000000	-14.449312	132.297300	24.369337	0.630285	0.000000	0.099595	0.000000	-0.079722	0.000000	0.000000	0.000000	0.000000	0.000000	0.000000	0.000000	0.000000	0.000000	0.000000
0.842000	0.000000	0.000000	0.000000	0.000000	0.000000	0.000000	0.000000	0.000000	0.000000	0.000000	0.000000	0.000000	0.000000	0.000000	0.000000	0.000000	0.000000	0.000000	-14.467133	492.936036	14.713676	0.559664	0.000000	0.091109	0.000000	-0.191531	-0.000000	-14.615844	132.991157	24.576020	0.630633	0.000000	0.099661	0.000000	-0.076797	0.000000	0.000000	0.000000	0.000000	0.000000	0.000000	0.000000	0.000000	0.000000	0.000000
0.842500	0.000000	0.000000	0.000000	0.000000	0.000000	0.000000	0.000000	0.000000	0.000000	0.000000	0.000000	0.000000	0.000000	0.000000	0.000000	0.000000	0.000000	0.000000	-14.130095	492.037531	14.475727	0.559802	0.000000	0.091153	0.000000	-0.204120	-0.000000	-14.782137	133.685246	24.783006	0.630978	0.000000	0.099728	0.000000	-0.073807	0.000000	0.000000	0.000000	0.000000	0.000000	0.000000	0.000000	0.000000	0.000000	0.000000
0.843000	0.000000	0.000000	0.000000	0.000000	0.000000	0.000000	0.000000	0.000000	0.000000	0.000000	0.000000	0.000000	0.000000	0.000000	0.000000	0.000000	0.000000	0.000000	-13.793127	491.150203	14.236672	0.559937	0.000000	0.091197	0.000000	-0.216823	-0.000000	-14.948135	134.379482	24.990290	0.631321	0.000000	0.099794	0.000000	-0.070762	0.000000	0.000000	0.000000	0.000000	0.000000	0.000000	0.000000	0.000000	0.000000	0.000000
0.843500	0.000000	0.000000	0.000000	0.000000	0.000000	0.000000	0.000000	0.000000	0.000000	0.000000	0.000000	0.000000	0.000000	0.000000	0.000000	0.000000	0.000000	0.000000	-13.456226	490.273958	13.996533	0.560071	0.000000	0.091241	0.000000	-0.229653	-0.000000	-15.113775	135.073773	25.197873	0.631662	0.000000	0.099861	0.000000	-0.067673	0.000000	0.000000	0.000000	0.000000	0.000000	0.000000	0.000000	0.000000	0.000000	0.000000
0.844000	0.000000	0.000000	0.000000	0.000000	0.000000	0.000000	0.000000	0.000000	0.000000	0.000000	0.000000	0.000000	0.000000	0.000000	0.000000	0.000000	0.000000	0.000000	-13.119393	489.408699	13.755330	0.560203	0.000000	0.091285	0.000000	-0.242623	-0.000000	-15.278992	135.768019	25.405751	0.632000	0.000000	0.099928	-0.000000	-0.064549	0.000000	0.000000	0.000000	0.000000	0.000000	0.000000	0.000000	0.000000	0.000000	0.000000
0.844500	0.000000	0.000000	0.000000	0.000000	0.000000	0.000000	0.000000	0.000000	0.000000	0.000000	0.000000	0.000000	0.000000	0.000000	0.000000	0.000000	0.000000	0.000000	-12.782620	488.554327	13.513088	0.560333	0.000000	0.091329	0.000000	-0.255746	-0.000000	-15.443722	136.462103	25.613922	0.632336	0.000000	0.099995	-0.000000	-0.061403	0.000000	0.000000	0.000000	0.000000	0.000000	0.000000	0.000000	0.000000	0.000000	0.000000
0.845000	0.000000	0.000000	0.000000	0.000000	0.000000	0.000000	0.000000	0.000000	0.000000	0.000000	0.000000	0.000000	0.000000	0.000000	0.000000	0.000000	0.000000	0.000000	-12.445897	487.710741	13.269830	0.560461	0.000000	0.091374	0.000000	-0.269036	-0.000000	-15.607900	137.155897	25.822381	0.632670	0.000000	0.100063	-0.000000	-0.058243	0.000000	0.000000	0.000000	0.000000	0.000000	0.000000	0.000000	0.000000	0.000000	0.000000
0.845500	0.000000	0.000000	0.000000	0.000000	0.000000	0.000000	0.000000	0.000000	0.000000	0.000000	0.000000	0.000000	0.000000	0.000000	0.000000	0.000000	0.000000	0.000000	-12.109209	486.877842	13.025585	0.560586	0.000000	0.091419	0.000000	-0.282505	-0.000000	-15.771465	137.849259	26.031122	0.633001	0.000000	0.100131	-0.000000	-0.055079	0.000000	0.000000	0.000000	0.000000	0.000000	0.000000	0.000000	0.000000	0.000000	0.000000
0.846000	0.000000	0.000000	0.000000	0.000000	0.000000	0.000000	0.000000	0.000000	0.000000	0.000000	0.000000	0.000000	0.000000	0.000000	0.000000	0.000000	0.000000	0.000000	-11.772531	486.055538	12.780380	0.560710	0.000000	0.091464	0.000000	-0.296167	0.000000	-15.934355	138.542043	26.240132	0.633329	0.000000	0.100199	-0.000000	-0.051918	0.000000	0.000000	0.000000	0.000000	0.000000	0.000000	0.000000	0.000000	0.000000	0.000000
0.846500	0.000000	0.000000	0.000000	0.000000	0.000000	0.000000	0.000000	0.000000	0.000000	0.000000	0.000000	0.000000	0.000000	0.000000	0.000000	0.000000	0.000000	0.000000	-11.435835	485.243737	12.534247	0.560832	0.000000	0.091509	0.000000	-0.310032	0.000000	-16.096507	139.234097	26.449402	0.633654	0.000000	0.100268	-0.000000	-0.048767	0.000000	0.000000	0.000000	0.000000	0.000000	0.000000	0.000000	0.000000	0.000000	0.000000
0.847000	0.000000	0.000000	0.000000	0.000000	0.000000	0.000000	0.000000	0.000000	0.000000	0.000000	0.000000	0.000000	0.000000	0.000000	0.000000	0.000000	0.000000	0.000000	-11.099087	484.442342	12.287222	0.560952	0.000000	0.091554	0.000000	-0.324107	0.000000	-16.257865	139.925271	26.658920	0.633976	0.000000	0.100337	-0.000000	-0.045634	0.000000	0.000000	0.000000	0.000000	0.000000	0.000000	0.000000	0.000000	0.000000	0.000000
